<svg xmlns="http://www.w3.org/2000/svg" viewBox="0 0 512 512" width="512" height="512">
<defs><linearGradient id="g" x1="0" y1="0" x2="1" y2="1"><stop offset="0" stop-color="#f5efe3"/><stop offset=".45" stop-color="#e6c77a"/><stop offset="1" stop-color="#c9a24b"/></linearGradient>
<radialGradient id="bg" cx=".5" cy=".45" r=".6"><stop offset="0" stop-color="#2a2114"/><stop offset="1" stop-color="#0b0a09"/></radialGradient></defs>

<circle cx="256" cy="256" r="208.90" fill="none" stroke="url(#g)" stroke-width="2.33" opacity=".35"/>
<path d="M210.43 56.33L211.00 56.33L211.57 56.33L212.14 56.33L212.71 56.33L213.28 56.33L213.85 56.33L214.42 56.33L214.98 56.33L215.55 56.33L216.12 56.33L216.69 56.33L217.26 56.33L217.83 56.33L218.40 56.33L218.97 56.33L219.54 56.33L220.11 56.33L220.68 56.33L221.25 56.33L221.82 56.33L222.39 56.33L222.96 56.33L223.53 56.33L224.10 56.33L224.67 56.33L225.24 56.33L225.81 56.33L226.38 56.33L226.95 56.33L227.52 56.33L228.09 56.33L228.66 56.33L229.23 56.33L229.80 56.33L230.37 56.33L230.94 56.33L231.50 56.33L232.07 56.33L232.64 56.33L233.21 56.33L233.78 56.33L234.35 56.33L234.92 56.33L235.49 56.33L236.06 56.33L236.63 56.33L237.20 56.33L237.77 56.33L238.34 56.33L238.91 56.33L239.48 56.33L240.05 56.33L240.62 56.33L241.19 56.33L241.76 56.33L242.33 56.33L242.90 56.33L243.47 56.33L244.04 56.33L244.61 56.33L245.18 56.33L245.75 56.33L246.32 56.33L246.89 56.33L247.46 56.33L248.02 56.33L248.59 56.33L249.16 56.34L249.73 56.34L250.30 56.34L250.87 56.34L251.44 56.34L252.01 56.34L252.58 56.34L253.15 56.33L253.72 56.33L254.29 56.33L254.86 56.32L255.43 56.32L256.00 56.32L256.57 56.32L257.14 56.33L257.71 56.33L258.28 56.33L258.85 56.34L259.42 56.34L259.99 56.34L260.56 56.34L261.13 56.34L261.70 56.34L262.27 56.34L262.84 56.34L263.41 56.34L263.98 56.33L264.54 56.33L265.11 56.33L265.68 56.33L266.25 56.33L266.82 56.33L267.39 56.33L267.96 56.33L268.53 56.33L269.10 56.33L269.67 56.33L270.24 56.33L270.81 56.33L271.38 56.33L271.95 56.33L272.52 56.33L273.09 56.33L273.66 56.33L274.23 56.33L274.80 56.33L275.37 56.33L275.94 56.33L276.51 56.33L277.08 56.33L277.65 56.33L278.22 56.33L278.79 56.33L279.36 56.33L279.93 56.33L280.50 56.33L281.06 56.33L281.63 56.33L282.20 56.33L282.77 56.33L283.34 56.33L283.91 56.33L284.48 56.33L285.05 56.33L285.62 56.33L286.19 56.33L286.76 56.33L287.33 56.33L287.90 56.33L288.47 56.33L289.04 56.33L289.61 56.33L290.18 56.33L290.75 56.33L291.32 56.33L291.89 56.33L292.46 56.33L293.03 56.33L293.60 56.33L294.17 56.33L294.74 56.33L295.31 56.33L295.88 56.33L296.45 56.33L297.02 56.33L297.58 56.33L298.15 56.33L298.72 56.33L299.29 56.33L299.86 56.33L300.43 56.33L301.00 56.33L301.57 56.33" fill="none" stroke="url(#g)" stroke-width="2.10" stroke-linecap="round" stroke-linejoin="round" opacity="0.38"/>
<path d="M167.14 71.48L168.25 71.48L169.36 71.48L170.47 71.48L171.58 71.48L172.69 71.48L173.81 71.48L174.92 71.48L176.03 71.48L177.14 71.48L178.25 71.48L179.36 71.48L180.47 71.48L181.58 71.48L182.69 71.48L183.80 71.48L184.91 71.48L186.02 71.48L187.13 71.48L188.24 71.48L189.36 71.48L190.47 71.48L191.58 71.48L192.69 71.48L193.80 71.48L194.91 71.48L196.02 71.48L197.13 71.48L198.24 71.48L199.35 71.48L200.46 71.48L201.57 71.48L202.68 71.48L203.80 71.48L204.91 71.48L206.02 71.48L207.13 71.48L208.24 71.48L209.35 71.48L210.46 71.48L211.57 71.48L212.68 71.48L213.79 71.48L214.90 71.48L216.01 71.48L217.12 71.47L218.23 71.47L219.35 71.47L220.46 71.47L221.57 71.48L222.68 71.48L223.79 71.48L224.90 71.48L226.01 71.48L227.12 71.48L228.23 71.48L229.34 71.48L230.45 71.48L231.56 71.48L232.67 71.48L233.79 71.48L234.90 71.48L236.01 71.48L237.12 71.48L238.23 71.48L239.34 71.48L240.45 71.48L241.56 71.48L242.67 71.48L243.78 71.48L244.89 71.49L246.00 71.49L247.11 71.49L248.22 71.49L249.34 71.49L250.45 71.48L251.56 71.47L252.67 71.46L253.78 71.45L254.89 71.44L256.00 71.44L257.11 71.44L258.22 71.45L259.33 71.46L260.44 71.48L261.55 71.49L262.66 71.50L263.78 71.50L264.89 71.50L266.00 71.50L267.11 71.50L268.22 71.49L269.33 71.49L270.44 71.48L271.55 71.48L272.66 71.48L273.77 71.48L274.88 71.48L275.99 71.48L277.10 71.48L278.21 71.48L279.33 71.48L280.44 71.48L281.55 71.48L282.66 71.48L283.77 71.47L284.88 71.47L285.99 71.47L287.10 71.47L288.21 71.47L289.32 71.47L290.43 71.47L291.54 71.47L292.65 71.47L293.77 71.47L294.88 71.47L295.99 71.47L297.10 71.47L298.21 71.47L299.32 71.47L300.43 71.48L301.54 71.48L302.65 71.48L303.76 71.48L304.87 71.48L305.98 71.48L307.09 71.48L308.20 71.48L309.32 71.48L310.43 71.48L311.54 71.48L312.65 71.48L313.76 71.48L314.87 71.48L315.98 71.48L317.09 71.48L318.20 71.48L319.31 71.48L320.42 71.48L321.53 71.48L322.64 71.48L323.76 71.48L324.87 71.48L325.98 71.48L327.09 71.48L328.20 71.48L329.31 71.48L330.42 71.48L331.53 71.48L332.64 71.48L333.75 71.48L334.86 71.48L335.97 71.48L337.08 71.48L338.19 71.48L339.31 71.48L340.42 71.48L341.53 71.48L342.64 71.48L343.75 71.48L344.86 71.48" fill="none" stroke="url(#g)" stroke-width="2.55" stroke-linecap="round" stroke-linejoin="round" opacity="0.51"/>
<path d="M128.31 95.88L129.91 95.88L131.50 95.88L133.10 95.88L134.69 95.88L136.29 95.88L137.89 95.88L139.48 95.88L141.08 95.88L142.67 95.88L144.27 95.88L145.87 95.88L147.46 95.88L149.06 95.88L150.66 95.88L152.25 95.88L153.85 95.88L155.44 95.88L157.04 95.88L158.64 95.88L160.23 95.88L161.83 95.88L163.42 95.88L165.02 95.88L166.62 95.88L168.21 95.88L169.81 95.88L171.40 95.88L173.00 95.88L174.60 95.88L176.19 95.88L177.79 95.88L179.39 95.88L180.98 95.88L182.58 95.88L184.17 95.88L185.77 95.87L187.37 95.87L188.96 95.87L190.56 95.86L192.15 95.86L193.75 95.85L195.35 95.85L196.94 95.85L198.54 95.84L200.14 95.84L201.73 95.84L203.33 95.84L204.92 95.84L206.52 95.84L208.12 95.85L209.71 95.85L211.31 95.85L212.90 95.86L214.50 95.86L216.10 95.87L217.69 95.87L219.29 95.87L220.89 95.88L222.48 95.88L224.08 95.88L225.67 95.88L227.27 95.88L228.87 95.88L230.46 95.88L232.06 95.88L233.65 95.88L235.25 95.88L236.85 95.89L238.44 95.90L240.04 95.91L241.63 95.93L243.23 95.94L244.83 95.93L246.42 95.91L248.02 95.86L249.62 95.80L251.21 95.73L252.81 95.67L254.40 95.62L256.00 95.60L257.60 95.63L259.19 95.69L260.79 95.77L262.38 95.85L263.98 95.93L265.58 95.98L267.17 96.01L268.77 96.01L270.37 95.99L271.96 95.97L273.56 95.94L275.15 95.91L276.75 95.90L278.35 95.89L279.94 95.88L281.54 95.88L283.13 95.87L284.73 95.87L286.33 95.87L287.92 95.86L289.52 95.86L291.11 95.85L292.71 95.85L294.31 95.84L295.90 95.84L297.50 95.83L299.10 95.83L300.69 95.82L302.29 95.82L303.88 95.81L305.48 95.81L307.08 95.81L308.67 95.81L310.27 95.81L311.86 95.82L313.46 95.82L315.06 95.83L316.65 95.83L318.25 95.84L319.85 95.84L321.44 95.85L323.04 95.86L324.63 95.86L326.23 95.86L327.83 95.87L329.42 95.87L331.02 95.87L332.61 95.88L334.21 95.88L335.81 95.88L337.40 95.88L339.00 95.88L340.60 95.88L342.19 95.88L343.79 95.88L345.38 95.88L346.98 95.88L348.58 95.88L350.17 95.88L351.77 95.88L353.36 95.88L354.96 95.88L356.56 95.88L358.15 95.88L359.75 95.88L361.34 95.88L362.94 95.88L364.54 95.88L366.13 95.88L367.73 95.88L369.33 95.88L370.92 95.88L372.52 95.88L374.11 95.88L375.71 95.88L377.31 95.88L378.90 95.88L380.50 95.88L382.09 95.88L383.69 95.88" fill="none" stroke="url(#g)" stroke-width="2.96" stroke-linecap="round" stroke-linejoin="round" opacity="0.62"/>
<path d="M95.88 128.31L97.88 128.31L99.88 128.31L101.89 128.31L103.89 128.31L105.89 128.31L107.89 128.31L109.89 128.31L111.89 128.31L113.89 128.31L115.90 128.31L117.90 128.31L119.90 128.31L121.90 128.31L123.90 128.31L125.90 128.31L127.90 128.31L129.91 128.31L131.91 128.31L133.91 128.31L135.91 128.31L137.91 128.31L139.91 128.31L141.92 128.31L143.92 128.31L145.92 128.31L147.92 128.31L149.92 128.31L151.92 128.31L153.92 128.31L155.93 128.31L157.93 128.30L159.93 128.30L161.93 128.29L163.93 128.28L165.93 128.27L167.93 128.26L169.94 128.24L171.94 128.21L173.94 128.18L175.94 128.15L177.94 128.12L179.94 128.08L181.94 128.05L183.95 128.02L185.95 128.00L187.95 127.99L189.95 127.99L191.95 128.00L193.95 128.02L195.96 128.05L197.96 128.08L199.96 128.11L201.96 128.15L203.96 128.18L205.96 128.21L207.96 128.23L209.97 128.25L211.97 128.27L213.97 128.28L215.97 128.29L217.97 128.30L219.97 128.30L221.97 128.31L223.98 128.31L225.98 128.31L227.98 128.32L229.98 128.33L231.98 128.37L233.98 128.44L235.99 128.54L237.99 128.65L239.99 128.71L241.99 128.68L243.99 128.51L245.99 128.19L247.99 127.74L250.00 127.23L252.00 126.73L254.00 126.36L256.00 126.25L258.00 126.43L260.00 126.87L262.00 127.47L264.01 128.10L266.01 128.65L268.01 129.06L270.01 129.26L272.01 129.28L274.01 129.15L276.01 128.94L278.02 128.72L280.02 128.54L282.02 128.41L284.02 128.34L286.02 128.30L288.02 128.27L290.03 128.25L292.03 128.23L294.03 128.20L296.03 128.18L298.03 128.14L300.03 128.11L302.03 128.07L304.04 128.02L306.04 127.98L308.04 127.94L310.04 127.90L312.04 127.86L314.04 127.83L316.04 127.81L318.05 127.80L320.05 127.79L322.05 127.80L324.05 127.82L326.05 127.84L328.05 127.87L330.06 127.91L332.06 127.95L334.06 128.00L336.06 128.04L338.06 128.08L340.06 128.12L342.06 128.16L344.07 128.19L346.07 128.21L348.07 128.24L350.07 128.25L352.07 128.27L354.07 128.28L356.07 128.29L358.08 128.29L360.08 128.30L362.08 128.30L364.08 128.30L366.08 128.31L368.08 128.31L370.08 128.31L372.09 128.31L374.09 128.31L376.09 128.31L378.09 128.31L380.09 128.31L382.09 128.31L384.10 128.31L386.10 128.31L388.10 128.31L390.10 128.31L392.10 128.31L394.10 128.31L396.10 128.31L398.11 128.31L400.11 128.31L402.11 128.31L404.11 128.31L406.11 128.31L408.11 128.31L410.11 128.31L412.12 128.31L414.12 128.31L416.12 128.31" fill="none" stroke="url(#g)" stroke-width="3.30" stroke-linecap="round" stroke-linejoin="round" opacity="0.72"/>
<path d="M71.48 167.14L73.79 167.14L76.09 167.14L78.40 167.14L80.71 167.14L83.01 167.14L85.32 167.14L87.63 167.14L89.93 167.14L92.24 167.14L94.55 167.14L96.85 167.14L99.16 167.14L101.47 167.14L103.77 167.14L106.08 167.14L108.39 167.14L110.69 167.14L113.00 167.14L115.30 167.14L117.61 167.14L119.92 167.14L122.22 167.14L124.53 167.14L126.84 167.14L129.14 167.14L131.45 167.14L133.76 167.14L136.06 167.13L138.37 167.13L140.68 167.12L142.98 167.10L145.29 167.08L147.60 167.04L149.90 166.98L152.21 166.91L154.51 166.81L156.82 166.69L159.13 166.54L161.43 166.36L163.74 166.17L166.05 165.96L168.35 165.76L170.66 165.57L172.97 165.41L175.27 165.29L177.58 165.23L179.89 165.23L182.19 165.29L184.50 165.40L186.81 165.56L189.11 165.75L191.42 165.95L193.73 166.16L196.03 166.36L198.34 166.53L200.64 166.68L202.95 166.81L205.26 166.91L207.56 166.98L209.87 167.04L212.18 167.07L214.48 167.10L216.79 167.12L219.10 167.13L221.40 167.15L223.71 167.19L226.02 167.29L228.32 167.52L230.63 167.93L232.94 168.54L235.24 169.18L237.55 169.58L239.85 169.38L242.16 168.33L244.47 166.39L246.77 163.69L249.08 160.55L251.39 157.53L253.69 155.33L256.00 154.61L258.31 155.70L260.61 158.37L262.92 162.01L265.23 165.86L267.53 169.24L269.84 171.67L272.15 172.94L274.45 173.03L276.76 172.23L279.06 170.95L281.37 169.62L283.68 168.53L285.98 167.78L288.29 167.33L290.60 167.07L292.90 166.91L295.21 166.78L297.52 166.65L299.82 166.50L302.13 166.33L304.44 166.13L306.74 165.91L309.05 165.66L311.36 165.40L313.66 165.14L315.97 164.88L318.27 164.63L320.58 164.41L322.89 164.23L325.19 164.10L327.50 164.02L329.81 164.00L332.11 164.04L334.42 164.14L336.73 164.30L339.03 164.49L341.34 164.72L343.65 164.98L345.95 165.24L348.26 165.50L350.57 165.76L352.87 166.00L355.18 166.21L357.49 166.40L359.79 166.56L362.10 166.70L364.40 166.81L366.71 166.89L369.02 166.96L371.32 167.01L373.63 167.05L375.94 167.08L378.24 167.10L380.55 167.11L382.86 167.12L385.16 167.13L387.47 167.13L389.78 167.14L392.08 167.14L394.39 167.14L396.70 167.14L399.00 167.14L401.31 167.14L403.61 167.14L405.92 167.14L408.23 167.14L410.53 167.14L412.84 167.14L415.15 167.14L417.45 167.14L419.76 167.14L422.07 167.14L424.37 167.14L426.68 167.14L428.99 167.14L431.29 167.14L433.60 167.14L435.91 167.14L438.21 167.14L440.52 167.14" fill="none" stroke="url(#g)" stroke-width="3.56" stroke-linecap="round" stroke-linejoin="round" opacity="0.79"/>
<path d="M56.33 210.43L58.83 210.43L61.33 210.43L63.82 210.43L66.32 210.43L68.81 210.43L71.31 210.43L73.81 210.43L76.30 210.43L78.80 210.43L81.29 210.43L83.79 210.43L86.28 210.43L88.78 210.43L91.28 210.43L93.77 210.43L96.27 210.43L98.76 210.43L101.26 210.43L103.76 210.43L106.25 210.43L108.75 210.43L111.24 210.43L113.74 210.43L116.23 210.43L118.73 210.42L121.23 210.42L123.72 210.41L126.22 210.40L128.71 210.38L131.21 210.34L133.71 210.29L136.20 210.20L138.70 210.07L141.19 209.88L143.69 209.63L146.18 209.29L148.68 208.86L151.18 208.33L153.67 207.72L156.17 207.04L158.66 206.32L161.16 205.60L163.65 204.94L166.15 204.38L168.65 203.98L171.14 203.76L173.64 203.76L176.13 203.96L178.63 204.36L181.13 204.91L183.62 205.57L186.12 206.29L188.61 207.01L191.11 207.69L193.60 208.31L196.10 208.84L198.60 209.27L201.09 209.61L203.59 209.87L206.08 210.06L208.58 210.19L211.08 210.28L213.57 210.34L216.07 210.39L218.56 210.45L221.06 210.59L223.55 210.94L226.05 211.74L228.55 213.19L231.04 215.29L233.54 217.55L236.03 218.93L238.53 218.22L241.03 214.59L243.52 207.82L246.02 198.41L248.51 187.47L251.01 176.92L253.50 169.25L256.00 166.76L258.50 170.54L260.99 179.86L263.49 192.55L265.98 205.96L268.48 217.73L270.97 226.23L273.47 230.63L275.97 230.96L278.46 228.16L280.96 223.69L283.45 219.06L285.95 215.27L288.45 212.66L290.94 211.08L293.44 210.18L295.93 209.62L298.43 209.17L300.92 208.72L303.42 208.20L305.92 207.60L308.41 206.91L310.91 206.13L313.40 205.27L315.90 204.37L318.40 203.45L320.89 202.54L323.39 201.68L325.88 200.92L328.38 200.29L330.87 199.82L333.37 199.55L335.87 199.48L338.36 199.63L340.86 199.98L343.35 200.51L345.85 201.20L348.35 202.00L350.84 202.88L353.34 203.80L355.83 204.72L358.33 205.61L360.82 206.43L363.32 207.18L365.82 207.84L368.31 208.41L370.81 208.88L373.30 209.26L375.80 209.57L378.29 209.81L380.79 209.99L383.29 210.12L385.78 210.22L388.28 210.29L390.77 210.34L393.27 210.37L395.77 210.39L398.26 210.40L400.76 210.41L403.25 210.42L405.75 210.42L408.24 210.42L410.74 210.43L413.24 210.43L415.73 210.43L418.23 210.43L420.72 210.43L423.22 210.43L425.72 210.43L428.21 210.43L430.71 210.43L433.20 210.43L435.70 210.43L438.19 210.43L440.69 210.43L443.19 210.43L445.68 210.43L448.18 210.43L450.67 210.43L453.17 210.43L455.67 210.43" fill="none" stroke="url(#g)" stroke-width="3.72" stroke-linecap="round" stroke-linejoin="round" opacity="0.83"/>
<path d="M51.20 256.00L53.76 256.00L56.32 256.00L58.88 256.00L61.44 256.00L64.00 256.00L66.56 256.00L69.12 256.00L71.68 256.00L74.24 256.00L76.80 256.00L79.36 256.00L81.92 256.00L84.48 256.00L87.04 256.00L89.60 256.00L92.16 256.00L94.72 256.00L97.28 256.00L99.84 256.00L102.40 256.00L104.96 256.00L107.52 256.00L110.08 256.00L112.64 256.00L115.20 255.99L117.76 255.99L120.32 255.98L122.88 255.96L125.44 255.92L128.00 255.87L130.56 255.78L133.12 255.64L135.68 255.44L138.24 255.15L140.80 254.75L143.36 254.22L145.92 253.55L148.48 252.73L151.04 251.77L153.60 250.71L156.16 249.58L158.72 248.46L161.28 247.43L163.84 246.56L166.40 245.93L168.96 245.59L171.52 245.58L174.08 245.90L176.64 246.52L179.20 247.38L181.76 248.41L184.32 249.53L186.88 250.66L189.44 251.73L192.00 252.69L194.56 253.52L197.12 254.20L199.68 254.73L202.24 255.13L204.80 255.43L207.36 255.64L209.92 255.77L212.48 255.87L215.04 255.94L217.60 256.03L220.16 256.25L222.72 256.80L225.28 258.04L227.84 260.31L230.40 263.59L232.96 267.12L235.52 269.27L238.08 268.17L240.64 262.50L243.20 251.93L245.76 237.23L248.32 220.15L250.88 203.68L253.44 191.70L256.00 187.81L258.56 193.72L261.12 208.27L263.68 228.09L266.24 249.02L268.80 267.40L271.36 280.68L273.92 287.54L276.48 288.07L279.04 283.69L281.60 276.71L284.16 269.48L286.72 263.56L289.28 259.48L291.84 257.02L294.40 255.61L296.96 254.73L299.52 254.04L302.08 253.33L304.64 252.53L307.20 251.59L309.76 250.50L312.32 249.28L314.88 247.95L317.44 246.54L320.00 245.10L322.56 243.68L325.12 242.34L327.68 241.15L330.24 240.16L332.80 239.44L335.36 239.01L337.92 238.91L340.48 239.14L343.04 239.68L345.60 240.51L348.16 241.58L350.72 242.84L353.28 244.22L355.84 245.65L358.40 247.09L360.96 248.47L363.52 249.76L366.08 250.93L368.64 251.96L371.20 252.85L373.76 253.58L376.32 254.18L378.88 254.66L381.44 255.03L384.00 255.31L386.56 255.52L389.12 255.67L391.68 255.78L394.24 255.86L396.80 255.91L399.36 255.94L401.92 255.96L404.48 255.98L407.04 255.99L409.60 255.99L412.16 256.00L414.72 256.00L417.28 256.00L419.84 256.00L422.40 256.00L424.96 256.00L427.52 256.00L430.08 256.00L432.64 256.00L435.20 256.00L437.76 256.00L440.32 256.00L442.88 256.00L445.44 256.00L448.00 256.00L450.56 256.00L453.12 256.00L455.68 256.00L458.24 256.00L460.80 256.00" fill="none" stroke="url(#g)" stroke-width="4.31" stroke-linecap="round" stroke-linejoin="round" opacity="1.00"/>
<path d="M56.33 301.57L58.83 301.57L61.33 301.57L63.82 301.57L66.32 301.57L68.81 301.57L71.31 301.57L73.81 301.57L76.30 301.57L78.80 301.57L81.29 301.57L83.79 301.57L86.28 301.57L88.78 301.57L91.28 301.57L93.77 301.57L96.27 301.57L98.76 301.57L101.26 301.57L103.76 301.57L106.25 301.57L108.75 301.57L111.24 301.57L113.74 301.57L116.23 301.57L118.73 301.57L121.23 301.56L123.72 301.56L126.22 301.54L128.71 301.52L131.21 301.49L133.71 301.43L136.20 301.34L138.70 301.21L141.19 301.03L143.69 300.77L146.18 300.44L148.68 300.00L151.18 299.48L153.67 298.87L156.17 298.18L158.66 297.46L161.16 296.75L163.65 296.08L166.15 295.52L168.65 295.12L171.14 294.91L173.64 294.90L176.13 295.11L178.63 295.50L181.13 296.05L183.62 296.71L186.12 297.43L188.61 298.15L191.11 298.84L193.60 299.45L196.10 299.98L198.60 300.42L201.09 300.76L203.59 301.02L206.08 301.21L208.58 301.34L211.08 301.43L213.57 301.49L216.07 301.53L218.56 301.59L221.06 301.73L223.55 302.09L226.05 302.88L228.55 304.33L231.04 306.44L233.54 308.69L236.03 310.07L238.53 309.37L241.03 305.73L243.52 298.97L246.02 289.55L248.51 278.62L251.01 268.07L253.50 260.39L256.00 257.90L258.50 261.68L260.99 271.01L263.49 283.70L265.98 297.10L268.48 308.87L270.97 317.38L273.47 321.77L275.97 322.11L278.46 319.30L280.96 314.84L283.45 310.21L285.95 306.41L288.45 303.80L290.94 302.22L293.44 301.32L295.93 300.76L298.43 300.32L300.92 299.87L303.42 299.35L305.92 298.75L308.41 298.05L310.91 297.27L313.40 296.42L315.90 295.52L318.40 294.59L320.89 293.68L323.39 292.83L325.88 292.06L328.38 291.43L330.87 290.97L333.37 290.69L335.87 290.63L338.36 290.77L340.86 291.12L343.35 291.65L345.85 292.34L348.35 293.14L350.84 294.03L353.34 294.95L355.83 295.87L358.33 296.75L360.82 297.58L363.32 298.33L365.82 298.99L368.31 299.55L370.81 300.02L373.30 300.41L375.80 300.71L378.29 300.95L380.79 301.13L383.29 301.27L385.78 301.36L388.28 301.43L390.77 301.48L393.27 301.51L395.77 301.54L398.26 301.55L400.76 301.56L403.25 301.56L405.75 301.57L408.24 301.57L410.74 301.57L413.24 301.57L415.73 301.57L418.23 301.57L420.72 301.57L423.22 301.57L425.72 301.57L428.21 301.57L430.71 301.57L433.20 301.57L435.70 301.57L438.19 301.57L440.69 301.57L443.19 301.57L445.68 301.57L448.18 301.57L450.67 301.57L453.17 301.57L455.67 301.57" fill="none" stroke="url(#g)" stroke-width="3.72" stroke-linecap="round" stroke-linejoin="round" opacity="0.83"/>
<path d="M71.48 344.86L73.79 344.86L76.09 344.86L78.40 344.86L80.71 344.86L83.01 344.86L85.32 344.86L87.63 344.86L89.93 344.86L92.24 344.86L94.55 344.86L96.85 344.86L99.16 344.86L101.47 344.86L103.77 344.86L106.08 344.86L108.39 344.86L110.69 344.86L113.00 344.86L115.30 344.86L117.61 344.86L119.92 344.86L122.22 344.86L124.53 344.86L126.84 344.86L129.14 344.86L131.45 344.86L133.76 344.86L136.06 344.85L138.37 344.85L140.68 344.84L142.98 344.82L145.29 344.79L147.60 344.76L149.90 344.70L152.21 344.63L154.51 344.53L156.82 344.41L159.13 344.26L161.43 344.08L163.74 343.89L166.05 343.68L168.35 343.47L170.66 343.28L172.97 343.12L175.27 343.01L177.58 342.95L179.89 342.95L182.19 343.00L184.50 343.12L186.81 343.28L189.11 343.47L191.42 343.67L193.73 343.88L196.03 344.07L198.34 344.25L200.64 344.40L202.95 344.53L205.26 344.63L207.56 344.70L209.87 344.75L212.18 344.79L214.48 344.82L216.79 344.84L219.10 344.85L221.40 344.87L223.71 344.91L226.02 345.01L228.32 345.23L230.63 345.65L232.94 346.25L235.24 346.90L237.55 347.30L239.85 347.10L242.16 346.05L244.47 344.11L246.77 341.41L249.08 338.27L251.39 335.25L253.69 333.04L256.00 332.33L258.31 333.42L260.61 336.09L262.92 339.73L265.23 343.58L267.53 346.95L269.84 349.39L272.15 350.65L274.45 350.75L276.76 349.95L279.06 348.67L281.37 347.34L283.68 346.25L285.98 345.50L288.29 345.05L290.60 344.79L292.90 344.63L295.21 344.50L297.52 344.37L299.82 344.22L302.13 344.05L304.44 343.85L306.74 343.63L309.05 343.38L311.36 343.12L313.66 342.86L315.97 342.60L318.27 342.35L320.58 342.13L322.89 341.95L325.19 341.82L327.50 341.74L329.81 341.72L332.11 341.76L334.42 341.86L336.73 342.01L339.03 342.21L341.34 342.44L343.65 342.69L345.95 342.96L348.26 343.22L350.57 343.48L352.87 343.71L355.18 343.93L357.49 344.12L359.79 344.28L362.10 344.42L364.40 344.53L366.71 344.61L369.02 344.68L371.32 344.73L373.63 344.77L375.94 344.80L378.24 344.82L380.55 344.83L382.86 344.84L385.16 344.85L387.47 344.85L389.78 344.86L392.08 344.86L394.39 344.86L396.70 344.86L399.00 344.86L401.31 344.86L403.61 344.86L405.92 344.86L408.23 344.86L410.53 344.86L412.84 344.86L415.15 344.86L417.45 344.86L419.76 344.86L422.07 344.86L424.37 344.86L426.68 344.86L428.99 344.86L431.29 344.86L433.60 344.86L435.91 344.86L438.21 344.86L440.52 344.86" fill="none" stroke="url(#g)" stroke-width="3.56" stroke-linecap="round" stroke-linejoin="round" opacity="0.79"/>
<path d="M95.88 383.69L97.88 383.69L99.88 383.69L101.89 383.69L103.89 383.69L105.89 383.69L107.89 383.69L109.89 383.69L111.89 383.69L113.89 383.69L115.90 383.69L117.90 383.69L119.90 383.69L121.90 383.69L123.90 383.69L125.90 383.69L127.90 383.69L129.91 383.69L131.91 383.69L133.91 383.69L135.91 383.69L137.91 383.69L139.91 383.69L141.92 383.69L143.92 383.69L145.92 383.69L147.92 383.69L149.92 383.69L151.92 383.69L153.92 383.69L155.93 383.69L157.93 383.68L159.93 383.68L161.93 383.67L163.93 383.67L165.93 383.65L167.93 383.64L169.94 383.62L171.94 383.59L173.94 383.56L175.94 383.53L177.94 383.50L179.94 383.46L181.94 383.43L183.95 383.41L185.95 383.39L187.95 383.38L189.95 383.38L191.95 383.39L193.95 383.40L195.96 383.43L197.96 383.46L199.96 383.50L201.96 383.53L203.96 383.56L205.96 383.59L207.96 383.62L209.97 383.64L211.97 383.65L213.97 383.66L215.97 383.67L217.97 383.68L219.97 383.68L221.97 383.69L223.98 383.69L225.98 383.69L227.98 383.70L229.98 383.72L231.98 383.75L233.98 383.82L235.99 383.92L237.99 384.03L239.99 384.09L241.99 384.06L243.99 383.89L245.99 383.57L247.99 383.12L250.00 382.61L252.00 382.11L254.00 381.75L256.00 381.63L258.00 381.81L260.00 382.25L262.00 382.85L264.01 383.48L266.01 384.04L268.01 384.44L270.01 384.64L272.01 384.66L274.01 384.53L276.01 384.32L278.02 384.10L280.02 383.92L282.02 383.80L284.02 383.72L286.02 383.68L288.02 383.65L290.03 383.63L292.03 383.61L294.03 383.59L296.03 383.56L298.03 383.52L300.03 383.49L302.03 383.45L304.04 383.40L306.04 383.36L308.04 383.32L310.04 383.28L312.04 383.24L314.04 383.21L316.04 383.19L318.05 383.18L320.05 383.17L322.05 383.18L324.05 383.20L326.05 383.22L328.05 383.25L330.06 383.29L332.06 383.33L334.06 383.38L336.06 383.42L338.06 383.46L340.06 383.50L342.06 383.54L344.07 383.57L346.07 383.60L348.07 383.62L350.07 383.64L352.07 383.65L354.07 383.66L356.07 383.67L358.08 383.68L360.08 383.68L362.08 383.68L364.08 383.69L366.08 383.69L368.08 383.69L370.08 383.69L372.09 383.69L374.09 383.69L376.09 383.69L378.09 383.69L380.09 383.69L382.09 383.69L384.10 383.69L386.10 383.69L388.10 383.69L390.10 383.69L392.10 383.69L394.10 383.69L396.10 383.69L398.11 383.69L400.11 383.69L402.11 383.69L404.11 383.69L406.11 383.69L408.11 383.69L410.11 383.69L412.12 383.69L414.12 383.69L416.12 383.69" fill="none" stroke="url(#g)" stroke-width="3.30" stroke-linecap="round" stroke-linejoin="round" opacity="0.72"/>
<path d="M128.31 416.12L129.91 416.12L131.50 416.12L133.10 416.12L134.69 416.12L136.29 416.12L137.89 416.12L139.48 416.12L141.08 416.12L142.67 416.12L144.27 416.12L145.87 416.12L147.46 416.12L149.06 416.12L150.66 416.12L152.25 416.12L153.85 416.12L155.44 416.12L157.04 416.12L158.64 416.12L160.23 416.12L161.83 416.12L163.42 416.12L165.02 416.12L166.62 416.12L168.21 416.12L169.81 416.12L171.40 416.12L173.00 416.12L174.60 416.12L176.19 416.12L177.79 416.12L179.39 416.12L180.98 416.12L182.58 416.12L184.17 416.11L185.77 416.11L187.37 416.11L188.96 416.11L190.56 416.10L192.15 416.10L193.75 416.09L195.35 416.09L196.94 416.08L198.54 416.08L200.14 416.08L201.73 416.08L203.33 416.08L204.92 416.08L206.52 416.08L208.12 416.08L209.71 416.09L211.31 416.09L212.90 416.10L214.50 416.10L216.10 416.11L217.69 416.11L219.29 416.11L220.89 416.11L222.48 416.12L224.08 416.12L225.67 416.12L227.27 416.12L228.87 416.12L230.46 416.12L232.06 416.12L233.65 416.12L235.25 416.12L236.85 416.13L238.44 416.14L240.04 416.15L241.63 416.16L243.23 416.17L244.83 416.17L246.42 416.15L248.02 416.10L249.62 416.04L251.21 415.97L252.81 415.91L254.40 415.86L256.00 415.84L257.60 415.86L259.19 415.92L260.79 416.01L262.38 416.09L263.98 416.17L265.58 416.22L267.17 416.25L268.77 416.25L270.37 416.23L271.96 416.20L273.56 416.17L275.15 416.15L276.75 416.13L278.35 416.12L279.94 416.12L281.54 416.11L283.13 416.11L284.73 416.11L286.33 416.10L287.92 416.10L289.52 416.10L291.11 416.09L292.71 416.09L294.31 416.08L295.90 416.07L297.50 416.07L299.10 416.06L300.69 416.06L302.29 416.05L303.88 416.05L305.48 416.05L307.08 416.05L308.67 416.05L310.27 416.05L311.86 416.06L313.46 416.06L315.06 416.07L316.65 416.07L318.25 416.08L319.85 416.08L321.44 416.09L323.04 416.09L324.63 416.10L326.23 416.10L327.83 416.11L329.42 416.11L331.02 416.11L332.61 416.11L334.21 416.12L335.81 416.12L337.40 416.12L339.00 416.12L340.60 416.12L342.19 416.12L343.79 416.12L345.38 416.12L346.98 416.12L348.58 416.12L350.17 416.12L351.77 416.12L353.36 416.12L354.96 416.12L356.56 416.12L358.15 416.12L359.75 416.12L361.34 416.12L362.94 416.12L364.54 416.12L366.13 416.12L367.73 416.12L369.33 416.12L370.92 416.12L372.52 416.12L374.11 416.12L375.71 416.12L377.31 416.12L378.90 416.12L380.50 416.12L382.09 416.12L383.69 416.12" fill="none" stroke="url(#g)" stroke-width="2.96" stroke-linecap="round" stroke-linejoin="round" opacity="0.62"/>
<path d="M167.14 440.52L168.25 440.52L169.36 440.52L170.47 440.52L171.58 440.52L172.69 440.52L173.81 440.52L174.92 440.52L176.03 440.52L177.14 440.52L178.25 440.52L179.36 440.52L180.47 440.52L181.58 440.52L182.69 440.52L183.80 440.52L184.91 440.52L186.02 440.52L187.13 440.52L188.24 440.52L189.36 440.52L190.47 440.52L191.58 440.52L192.69 440.52L193.80 440.52L194.91 440.52L196.02 440.52L197.13 440.52L198.24 440.52L199.35 440.52L200.46 440.52L201.57 440.52L202.68 440.52L203.80 440.52L204.91 440.52L206.02 440.52L207.13 440.52L208.24 440.52L209.35 440.52L210.46 440.52L211.57 440.51L212.68 440.51L213.79 440.51L214.90 440.51L216.01 440.51L217.12 440.51L218.23 440.51L219.35 440.51L220.46 440.51L221.57 440.51L222.68 440.51L223.79 440.51L224.90 440.51L226.01 440.51L227.12 440.52L228.23 440.52L229.34 440.52L230.45 440.52L231.56 440.52L232.67 440.52L233.79 440.52L234.90 440.52L236.01 440.52L237.12 440.52L238.23 440.52L239.34 440.52L240.45 440.52L241.56 440.52L242.67 440.52L243.78 440.52L244.89 440.52L246.00 440.53L247.11 440.53L248.22 440.53L249.34 440.52L250.45 440.52L251.56 440.51L252.67 440.49L253.78 440.48L254.89 440.48L256.00 440.47L257.11 440.48L258.22 440.49L259.33 440.50L260.44 440.51L261.55 440.53L262.66 440.53L263.78 440.54L264.89 440.54L266.00 440.54L267.11 440.53L268.22 440.53L269.33 440.52L270.44 440.52L271.55 440.52L272.66 440.52L273.77 440.52L274.88 440.52L275.99 440.52L277.10 440.52L278.21 440.52L279.33 440.51L280.44 440.51L281.55 440.51L282.66 440.51L283.77 440.51L284.88 440.51L285.99 440.51L287.10 440.51L288.21 440.51L289.32 440.51L290.43 440.51L291.54 440.51L292.65 440.51L293.77 440.51L294.88 440.51L295.99 440.51L297.10 440.51L298.21 440.51L299.32 440.51L300.43 440.51L301.54 440.51L302.65 440.51L303.76 440.52L304.87 440.52L305.98 440.52L307.09 440.52L308.20 440.52L309.32 440.52L310.43 440.52L311.54 440.52L312.65 440.52L313.76 440.52L314.87 440.52L315.98 440.52L317.09 440.52L318.20 440.52L319.31 440.52L320.42 440.52L321.53 440.52L322.64 440.52L323.76 440.52L324.87 440.52L325.98 440.52L327.09 440.52L328.20 440.52L329.31 440.52L330.42 440.52L331.53 440.52L332.64 440.52L333.75 440.52L334.86 440.52L335.97 440.52L337.08 440.52L338.19 440.52L339.31 440.52L340.42 440.52L341.53 440.52L342.64 440.52L343.75 440.52L344.86 440.52" fill="none" stroke="url(#g)" stroke-width="2.55" stroke-linecap="round" stroke-linejoin="round" opacity="0.51"/>
<path d="M210.43 455.67L211.00 455.67L211.57 455.67L212.14 455.67L212.71 455.67L213.28 455.67L213.85 455.67L214.42 455.67L214.98 455.67L215.55 455.67L216.12 455.67L216.69 455.67L217.26 455.67L217.83 455.67L218.40 455.67L218.97 455.67L219.54 455.67L220.11 455.67L220.68 455.67L221.25 455.67L221.82 455.67L222.39 455.67L222.96 455.67L223.53 455.67L224.10 455.67L224.67 455.67L225.24 455.67L225.81 455.67L226.38 455.67L226.95 455.67L227.52 455.67L228.09 455.67L228.66 455.67L229.23 455.67L229.80 455.67L230.37 455.66L230.94 455.66L231.50 455.66L232.07 455.66L232.64 455.66L233.21 455.66L233.78 455.66L234.35 455.66L234.92 455.66L235.49 455.66L236.06 455.66L236.63 455.66L237.20 455.66L237.77 455.66L238.34 455.66L238.91 455.66L239.48 455.66L240.05 455.66L240.62 455.66L241.19 455.66L241.76 455.66L242.33 455.66L242.90 455.66L243.47 455.66L244.04 455.67L244.61 455.67L245.18 455.67L245.75 455.67L246.32 455.67L246.89 455.67L247.46 455.67L248.02 455.67L248.59 455.67L249.16 455.67L249.73 455.67L250.30 455.67L250.87 455.67L251.44 455.67L252.01 455.67L252.58 455.67L253.15 455.66L253.72 455.66L254.29 455.66L254.86 455.66L255.43 455.65L256.00 455.65L256.57 455.65L257.14 455.66L257.71 455.66L258.28 455.66L258.85 455.67L259.42 455.67L259.99 455.67L260.56 455.67L261.13 455.67L261.70 455.67L262.27 455.67L262.84 455.67L263.41 455.67L263.98 455.67L264.54 455.67L265.11 455.66L265.68 455.66L266.25 455.66L266.82 455.66L267.39 455.66L267.96 455.66L268.53 455.66L269.10 455.66L269.67 455.66L270.24 455.66L270.81 455.66L271.38 455.66L271.95 455.66L272.52 455.66L273.09 455.66L273.66 455.66L274.23 455.66L274.80 455.66L275.37 455.66L275.94 455.66L276.51 455.66L277.08 455.66L277.65 455.66L278.22 455.66L278.79 455.66L279.36 455.66L279.93 455.66L280.50 455.66L281.06 455.66L281.63 455.66L282.20 455.66L282.77 455.66L283.34 455.66L283.91 455.67L284.48 455.67L285.05 455.67L285.62 455.67L286.19 455.67L286.76 455.67L287.33 455.67L287.90 455.67L288.47 455.67L289.04 455.67L289.61 455.67L290.18 455.67L290.75 455.67L291.32 455.67L291.89 455.67L292.46 455.67L293.03 455.67L293.60 455.67L294.17 455.67L294.74 455.67L295.31 455.67L295.88 455.67L296.45 455.67L297.02 455.67L297.58 455.67L298.15 455.67L298.72 455.67L299.29 455.67L299.86 455.67L300.43 455.67L301.00 455.67L301.57 455.67" fill="none" stroke="url(#g)" stroke-width="2.10" stroke-linecap="round" stroke-linejoin="round" opacity="0.38"/>
</svg>